<?xml version="1.0" encoding="utf-8"?>
<!-- Generator: Adobe Illustrator 16.0.0, SVG Export Plug-In . SVG Version: 6.00 Build 0)  -->
<!DOCTYPE svg PUBLIC "-//W3C//DTD SVG 1.1//EN" "http://www.w3.org/Graphics/SVG/1.1/DTD/svg11.dtd">
<svg version="1.1" id="Layer_1" xmlns="http://www.w3.org/2000/svg" xmlns:xlink="http://www.w3.org/1999/xlink" x="0px" y="0px"
	 width="623.159px" height="267.498px" viewBox="0 0 623.159 267.498" enable-background="new 0 0 623.159 267.498"
	 xml:space="preserve">
<g>
	<path fill="#FFFFFF" d="M70.303,49.969c-1.825,0.598-2.899,3.206-3.555,5.197c-0.662,2.012-1.575,6.941,0.25,8.834
		c1.81,1.877,4.254-2.309,4.8-7.697C71.93,54.994,72.364,49.293,70.303,49.969z"/>
	<path fill="#FFFFFF" d="M109.281,62.562c-2.176,0.094-5.247,8.046-2.8,9.577c1.353,0.848,2.683-0.806,3.311-3.069
		C110.845,65.273,109.979,62.532,109.281,62.562z"/>
</g>
<g>
	<path fill="#F5CC23" d="M100.144,67.425c-2.666,1.977-8.749,6.283-15.465,10.41c2.394,0.244,4.636,0.403,6.512,0.474
		c5.934,0.218,13.033,0.573,17.56-3.979c2.779-2.797,3.444-9.569,2.893-15.885C107.889,61.736,104.085,64.5,100.144,67.425z
		 M109.792,69.07c-0.628,2.264-1.958,3.917-3.311,3.069c-2.446-1.531,0.625-9.483,2.8-9.577
		C109.979,62.532,110.845,65.273,109.792,69.07z"/>
	<path fill="#F5CC23" d="M72.417,44.265c-1.524-0.879-3.735-0.232-5.445,1.477c-7.012,7-10.173,16.063-11.826,25.54
		c-0.286,1.627-0.801,5.12-0.84,9.247c-0.011,1.056-0.062,3.456,0.644,6.312c0.221,0.905,0.645,1.871,1.178,2.836
		c0.917,1.66,2.708,2.764,4.238,2.449c2.141-0.439,4.16-2.395,5.703-5.569c2.547-5.247,4.832-11.499,6.098-17.656
		c1.078-5.259,2.03-8.782,2.313-15.417C74.545,51.933,74.539,45.488,72.417,44.265z M71.798,56.303
		c-0.546,5.389-2.99,9.574-4.8,7.697c-1.824-1.893-0.912-6.822-0.25-8.834c0.656-1.991,1.729-4.6,3.555-5.197
		C72.364,49.293,71.93,54.994,71.798,56.303z"/>
</g>
<g>
	<path fill="#8DC63F" d="M222.123,71.475l-22.03,101.087l-4.896,28.718h-3.012l4.896-28.718l12.804-101.087h-41.569
		c0.13,0.537,0.319,1.196,0.622,2.021c0.198,0.532,0.456,1.112,0.798,1.729c0.417,0.755,1.118,1.802,1.969,2.813
		c-0.605,0.789-1.293,1.579-1.42,1.729c-0.22,0.266-0.445,0.525-0.67,0.783c-3.104,3.545-6.708,6.358-10.655,7.89l-2.307,13.434
		c2.442,0.615,6.763,2.041,7.462,4.173c1.664,5.076-3.51,11.745-4.711,13.213c-2.512,3.069-4.96,6.249-7.365,9.496l-18.221,106.141
		h27.113l19.394-112.061l2.071-13.774h3.013l-2.26,13.774l-12.803,112.061h34.08l25.795-112.061l2.26-13.774h3.013l-2.26,13.774
		l-19.394,112.061h27.113l28.055-163.424H222.123z"/>
	<path fill="#8DC63F" d="M310.422,68.674c-19.202,0-34.453,14.475-38.219,36.421l-16.569,96.185
		c-3.578,21.945,6.59,36.42,25.795,36.42c19.205,0,34.453-14.475,38.219-36.42l16.381-96.185
		C339.982,83.149,329.626,68.674,310.422,68.674z M308.917,105.095l-16.378,96.185c-0.753,3.5-3.013,5.836-5.837,5.836
		c-3.013,0-4.519-2.336-3.954-5.836l16.569-96.185c0.564-3.502,3.013-5.837,5.836-5.837
		C307.976,99.258,309.669,101.593,308.917,105.095z"/>
	<path fill="#8DC63F" d="M368.222,120.737l2.824-16.108c0.564-3.27,2.637-5.37,5.273-5.37c2.824,0,4.143,2.101,3.766,5.37
		l-3.955,21.712h27.113l3.766-21.245c3.768-21.946-6.4-36.421-25.418-36.421s-33.893,14.475-37.846,36.421l-3.389,19.61
		c-6.402,37.584,29.561,40.853,26.547,58.129l-3.199,18.445c-0.564,3.5-3.014,5.836-5.838,5.836s-4.52-2.336-3.766-5.836
		l4.143-24.049H331.13l-4.143,24.049c-3.766,21.945,6.402,36.42,25.607,36.42s34.457-14.475,38.221-36.42l3.955-22.647
		C401.173,141.28,365.398,137.779,368.222,120.737z"/>
	<polygon fill="#8DC63F" points="464.814,102.06 470.085,71.475 418.119,71.475 412.847,102.06 425.273,102.06 402.492,234.899 
		429.605,234.899 452.388,102.06 	"/>
	<path fill="#8DC63F" d="M535.044,104.861c3.389-20.078-6.025-33.386-23.725-33.386h-34.457l-28.055,163.424h27.113l10.355-60.235
		h4.33l-2.447,60.235h27.113l1.318-68.874c6.025-5.603,10.355-13.774,12.051-23.813L535.044,104.861z M507.365,107.896
		l-5.461,32.216c-0.564,3.734-3.012,6.068-5.836,6.068H479.31l0.189-0.934l12.803-5.834l6.402-37.353h4.895
		C506.423,102.06,508.119,104.394,507.365,107.896z"/>
	<path fill="#8DC63F" d="M580.234,68.674c-19.207,0-34.457,14.475-38.223,36.421l-16.57,96.185
		c-3.576,21.945,6.592,36.42,25.797,36.42c19.203,0,34.455-14.475,38.221-36.42l16.381-96.185
		C609.794,83.149,599.439,68.674,580.234,68.674z M578.726,105.095l-16.381,96.185c-0.754,3.5-3.012,5.836-5.836,5.836
		c-3.012,0-4.52-2.336-3.955-5.836l16.57-96.185c0.564-3.502,3.012-5.837,5.836-5.837S579.48,101.593,578.726,105.095z"/>
	<path fill="#8DC63F" d="M155.475,116.694c0.76-0.964,3.572-4.555,4.153-5.759c0.191-0.396,0.345-0.785,0.424-1.136
		c0.494-2.242-4.052-3.372-4.937-3.538c-1.571-0.296-3.147-0.553-4.731-0.773c-6.822-0.949-14.659-1.129-22.618-0.85
		c-1.178,2.52-2.336,5.012-2.866,6.24c-0.632,1.464-2.813,6.342-5.059,11.027c-2.239,4.665-3.849,8.34-4.142,8.123
		c-1.541-1.152,5.022-18.777,5.96-21.103c1.46-3.623,2.969-7.212,4.519-10.779c2.478-5.702,5.058-11.334,7.712-16.927
		c-0.248-0.184-0.502-0.37-0.766-0.558c-2.364-1.679-5.404-4.686-2.379-3.442c0.39,0.16,0.764,0.234,1.389,0.507
		c2.613,1.133,3.29,1.501,4.786,2.337c3.548,1.98,8.151,4.025,11.879,4.773c7.348,1.471,14.006-2.177,19.075-8.454
		c-0.363-0.704-0.695-1.423-0.978-2.035c-1.367-2.978-1.534-5.476-1.528-6.477c0.028-4.672,4.476-3.975,8.366-2.421
		c1.355-3.485,2.708-7.459,4.069-10.82c0.29-0.716,0.586-1.427,0.885-2.137c0.187-0.446,0.651-1.448,0.393-1.741
		c-0.216-0.246-1.116,0.159-1.399,0.309c-0.526,0.276-0.997,0.539-1.392,0.774c-2.743,1.636-6.057,3.555-8.851,5.065
		c-3.151,1.705-9.975,5.13-11.554,5.919c-6.689,3.349-13.571,7.114-20.895,6.554c-1.13-0.087-3.339-0.955-3.249-1.205
		c0.371-1.012,3.34-0.973,4.863-1.34c1.203-0.291,3.198-0.885,5.053-1.511c5.618-11.242,11.429-22.441,17.207-33.849
		c0.396-0.779,1.115-2.555,0.851-4.13c-0.22-1.302-2.06-2.58-2.776-2.913c-2.498-1.165-5.041-2.157-7.612-2.963
		c-6.271-1.964-12.677-2.896-19.102-3.698c-6.391-0.796-12.813-1.23-19.23-0.996c-13.165,0.483-26.417,2.882-38.917,7.591
		c-3.209,1.208-6.376,2.552-9.526,3.948c-0.96,0.423-4.062,1.89-5.778,4.458c-1.765,2.64-2.538,5.422-2.811,6.995
		c-3.036,17.536-5.538,34.941-7.337,52.202c-0.373,3.579-0.72,7.165-1.038,10.752c-0.048,0.544-0.097,1.089-0.143,1.633
		c-0.234,2.74-0.44,5.481-0.625,8.221c9.769-1.504,19.218-4.149,28.492-7.181c1.176-0.384,2.317-0.767,3.429-1.149
		c1.726-5.723,3.672-11.572,5.261-16.686c0.213-0.688,0.948-2.867,1.468-2.764c0.878,0.18,3.423,2.873,3.899,3.436
		c2.519,2.964,4.953,5.763,7.394,8.448c7.083-3.709,13.293-8.08,20.35-14.042c2.182-1.844,7.837-7.897,7.661-6.786
		c-0.074,0.462-1.109,2.479-2.574,4.412c-3.306,4.368-9.606,10.423-12.428,12.528c-1.088,0.812-2.211,1.659-3.402,2.514
		c-0.116,0.083-0.23,0.166-0.347,0.249c-0.553,0.392-1.126,0.785-1.717,1.177c-0.137,0.091-0.279,0.182-0.418,0.272
		c-0.63,0.41-1.276,0.818-1.96,1.22c-1.733,1.018-3.493,1.981-5.27,2.906c-1.503-1.755-3.226-3.805-5.666-6.595
		c-0.498-0.566-2.829-3.12-3.743-4.174c-0.116-0.136-0.206-0.248-0.272-0.323c-0.093-0.104-0.157-0.067-0.226,0.059
		c-0.052,0.093-0.465,1.341-0.526,1.543c-1.506,5.157-3.121,10.626-4.529,16.009c-1.502,0.535-3.01,1.051-4.532,1.526
		c-1.921,0.599-3.855,1.199-5.799,1.792c-0.091,0.028-0.182,0.056-0.272,0.083c-1.972,0.601-3.956,1.194-5.951,1.767
		c-8.857,2.543-17.958,4.717-27.324,5.629c-0.389,0.037-1.21,0.186-1.354,0.688c-0.141,0.491,0.384,1.332,0.647,1.651
		c0.415,0.503,0.821,0.954,1.209,1.344c5.425,5.438,11.536,9.504,17.745,12.537c5.571,2.723,11.302,4.778,17.055,6.191
		c4.319,1.062,8.657,1.762,12.951,2.106c4.267,0.344,12.524,0.304,12.427,0.862c-0.207,1.192-4.869,2.625-13.725,2.792
		c-1.564,0.029-3.365-0.013-5.21-0.133c-1.62,13.307-2.928,26.555-3.911,39.697c-0.408,5.433-0.791,10.87-1.112,16.302
		c-0.739,12.549-1.14,25.049-0.74,37.332c0.046,1.389,0.099,2.773,0.167,4.154c0.068,1.41,0.301,5.607,1.168,6.244
		c1.186,0.871,3.99-5.686,4.662-7.02c2.58-5.119,5.231-10.18,7.87-15.2c7.813-14.864,15.944-29.581,24.557-43.842
		c4.884-8.089,10.016-15.943,15.083-23.859c7.228-11.298,14.545-22.535,22.31-33.172
		C150.148,123.639,152.768,120.134,155.475,116.694z M132.16,73.643c4.817,0.753,9.196,0.143,13.904-0.102
		c5.892-0.307,12.722-1.805,12.571-0.461c-5.571,1.664-14.336,5.198-20.222,4.247C133.116,76.47,130.213,73.339,132.16,73.643z
		 M74.922,75.285c-1.266,5.597-3.235,12.344-6.479,18.444c-1.793,3.367-5.823,7.666-9.857,6.92
		c-8.324-1.546-9.332-15.423-8.216-23.022c1.964-13.35,6.088-26.526,14.758-34.607c0.058-0.065,0.121-0.127,0.19-0.186
		c2.579-2.232,6.353-4.2,9.563-0.642c1.866,2.068,2.488,6.233,2.559,10.402C77.491,55.637,77.949,61.87,74.922,75.285z
		 M119.686,48.82c-0.885,2.058-2.128,3.746-3.277,5.049c0.698,7.085,0.346,12.525-0.302,15.453
		c-0.741,3.345-2.086,6.314-4.671,8.525c-5.591,4.78-11.422,4.388-18.466,4.142c-2.428-0.084-9.212-1.492-14.274-2.591
		c-0.472-0.102-1.347-0.333-1.387-0.688c-0.029-0.281,0.687-0.688,0.97-0.839c0.421-0.223,0.839-0.446,1.252-0.673
		c8.723-4.776,16.295-10.415,19.438-12.767c3.896-2.912,7.959-6.231,11.958-9.852c1.675-1.517,3.559-3.245,5.25-4.771
		c2.746-2.479,3.62-2.931,3.847-2.572C120.123,47.39,120.011,48.067,119.686,48.82z"/>
	<path fill="#8DC63F" d="M40.262,85.85c0.918-0.272,1.803-0.622,2.677-0.999c0.024-0.24,0.047-0.474,0.069-0.703
		c-4.435-1.323-11.972-4.298-12.451-5.364c-0.59-1.042,5.95,1.258,8.873,1.904c1.332,0.326,2.625,0.589,3.849,0.807
		c0.062-0.586,0.117-1.088,0.163-1.484c0.095-0.823,0.192-1.66,0.291-2.506c-1.297-0.217-2.694-0.497-4.238-0.881
		c-9.837-2.444-17.367-5.284-21.989-7.112c-0.407-0.161-1.859-0.782-2.14-0.347c-0.242,0.374,0.501,1.653,0.723,2.02
		c0.528,0.869,0.991,1.637,1.353,2.243c1.89,3.168,3.81,6.194,6.526,8.394C28.899,85.813,35.226,87.345,40.262,85.85z"/>
</g>
<g>
	<path fill="#2B3990" d="M613.258,66.612c-7.896-9.445-19.314-14.438-33.024-14.438c-14.393,0-27.842,5.8-37.866,16.133
		c-7.515-8.724-18.241-13.332-31.048-13.332H408.852c-2.058,0-3.886,1.139-4.828,2.863c-6.434-3.727-14.042-5.664-22.433-5.664
		c-13.672,0-26.132,5.052-36.032,14.61c-0.371,0.358-0.737,0.723-1.101,1.093c-0.329-0.429-0.667-0.851-1.014-1.265
		c-7.895-9.445-19.314-14.438-33.023-14.438c-8.321,0-16.311,1.916-23.572,5.604c-0.168-0.298-0.364-0.583-0.588-0.849
		c-1.045-1.24-2.584-1.955-4.206-1.955h-90.694c1.712-6.285,2.496-12.512-1.658-16.548c-1.62-1.581-3.771-2.382-6.395-2.382
		c-0.873,0-1.813,0.085-2.875,0.259c-2.407,0.395-5.581,1.403-7.513,2.173c-0.136,0.054-0.281,0.115-0.437,0.181
		c0.174-0.34,0.346-0.677,0.517-1.013c1.456-2.857,3.678-8.567,2.205-14.715c-1.965-8.167-9.763-12.238-10.647-12.677
		c-1.237-0.612-2.5-1.2-3.856-1.796c-14.265-6.276-29.43-7.737-41.049-8.308c-13.867-0.683-28.209,0.97-42.369,4.88
		c-7.652,2.114-14.797,5.023-20.77,7.587l-0.459,0.187c-1.392,0.557-3.722,1.488-6.965,3.789c-1.851,1.315-4.018,3.692-5.115,5.259
		c-0.865,1.234-1.767,2.614-2.499,4.334c-1.881,4.417-2.674,9.243-3.056,11.57l-0.026,0.163c-1.243,7.585-2.357,15.916-3.23,22.876
		c-6.066-1.901-11.399-3.634-13.874-4.469l-0.18-0.063c-0.694-0.247-2.32-0.824-4.028-1.257c-1.004-0.255-3.631-0.85-6.328-0.85
		c-2.464,0-4.557,0.499-6.22,1.482c-2.627,1.553-8.011,6.542-1.284,19.305c0.251,0.476,0.507,0.997,0.821,1.634
		c1.283,2.604,3.221,6.538,6.774,11.487c1.863,2.597,5.121,5.815,7.574,7.484c3.854,2.626,8.198,4.387,12.584,5.139
		c-0.078,0.999-0.151,1.97-0.221,2.912c-5.26,0.993-9.219,3.594-11.319,7.5c-3.513,6.54-0.593,13.911,2.983,18.247
		c0.784,0.946,1.614,1.887,2.538,2.879c5.728,6.145,12.693,11.331,21.296,15.859c5.46,2.871,10.903,4.751,15.865,6.152
		c-2.071,17.496-3.499,32.886-4.353,46.912c-0.167,2.705-0.31,5.396-0.434,8.056c-0.201,4.309-0.415,18.548-0.263,23.524
		c0.202,6.633,0.61,15.449,1.415,19.776c0.762,4.128,3.029,11.451,9.635,14.128c1.41,0.573,2.901,0.864,4.433,0.864
		c6,0,9.835-4.333,11.093-5.754c1.928-2.176,4.38-6.413,9.716-16.793l0.361-0.701c0.574-1.112,6.65-12.277,10.63-19.57
		c2.485-4.554,5.126-9.304,8.074-14.52c1.609-2.848,3.279-5.742,5.039-8.729c0.945-1.605,3.675-5.897,4.805-5.651
		c1.447,0.315,0.441,6.126,0.441,6.126l-7.392,43.063c-0.274,1.599,0.171,3.236,1.216,4.476s2.584,1.955,4.205,1.955h129.457
		c2.678,0,4.967-1.93,5.421-4.569l0.055-0.322c7.063,5.059,15.8,7.692,25.729,7.692c14.112,0,27.346-5.59,37.306-15.56
		c0.339,0.439,0.687,0.87,1.043,1.292c7.869,9.334,19.218,14.268,32.817,14.268c11.706,0,22.629-3.729,31.659-10.571l-0.229,1.342
		c-0.274,1.598,0.171,3.234,1.216,4.475c1.045,1.239,2.584,1.954,4.205,1.954h136.619c1.7,0,3.223-0.772,4.232-1.988
		c6.123,3.152,13.219,4.789,20.94,4.789c27.443,0,49.339-20.148,54.485-50.143l16.359-96.065
		C625.023,91.633,621.889,76.938,613.258,66.612z M23.969,81.822c-2.716-2.199-4.636-5.226-6.526-8.394
		c-0.361-0.606-0.824-1.374-1.353-2.243c-0.222-0.366-0.965-1.646-0.723-2.02c0.281-0.436,1.733,0.186,2.14,0.347
		c4.622,1.828,12.152,4.668,21.989,7.112c1.544,0.384,2.941,0.664,4.238,0.881c-0.099,0.846-0.196,1.683-0.291,2.506
		c-0.046,0.396-0.101,0.898-0.163,1.484c-1.224-0.218-2.518-0.481-3.849-0.807c-2.923-0.646-9.463-2.946-8.873-1.904
		c0.479,1.066,8.016,4.041,12.451,5.364c-0.022,0.229-0.045,0.462-0.069,0.703c-0.874,0.377-1.759,0.726-2.677,0.999
		C35.226,87.345,28.899,85.813,23.969,81.822z M110.22,184.146c-8.613,14.261-16.743,28.978-24.557,43.842
		c-2.639,5.021-5.29,10.081-7.87,15.2c-0.671,1.334-3.476,7.891-4.662,7.02c-0.867-0.637-1.1-4.834-1.168-6.244
		c-0.068-1.381-0.121-2.766-0.167-4.154c-0.4-12.283,0.001-24.783,0.74-37.332c0.321-5.432,0.704-10.869,1.112-16.302
		c0.983-13.143,2.291-26.391,3.911-39.697c1.845,0.12,3.646,0.162,5.21,0.133c8.856-0.167,13.518-1.6,13.725-2.792
		c0.097-0.559-8.16-0.519-12.427-0.862c-4.294-0.345-8.631-1.045-12.951-2.106c-5.752-1.413-11.484-3.469-17.055-6.191
		c-6.209-3.033-12.32-7.099-17.745-12.537c-0.388-0.39-0.795-0.841-1.209-1.344c-0.264-0.319-0.789-1.16-0.647-1.651
		c0.144-0.502,0.965-0.65,1.354-0.688c9.366-0.912,18.467-3.086,27.324-5.629c1.996-0.573,3.979-1.166,5.951-1.767
		c0.091-0.027,0.182-0.055,0.272-0.083c1.944-0.593,3.878-1.194,5.799-1.792c1.522-0.475,3.03-0.991,4.532-1.526
		c1.408-5.383,3.023-10.852,4.529-16.009c0.061-0.202,0.474-1.45,0.526-1.543c0.069-0.126,0.133-0.162,0.226-0.059
		c0.066,0.075,0.156,0.188,0.272,0.323c0.914,1.054,3.245,3.607,3.743,4.174c2.44,2.79,4.163,4.84,5.666,6.595
		c1.777-0.925,3.537-1.889,5.27-2.906c0.685-0.402,1.33-0.81,1.96-1.22c0.14-0.091,0.281-0.182,0.418-0.272
		c0.591-0.392,1.165-0.785,1.717-1.177c0.117-0.083,0.231-0.166,0.347-0.249c1.191-0.855,2.314-1.703,3.402-2.514
		c2.822-2.105,9.123-8.16,12.428-12.528c1.465-1.934,2.5-3.95,2.574-4.412c0.177-1.111-5.479,4.942-7.661,6.786
		c-7.057,5.962-13.267,10.333-20.35,14.042c-2.441-2.685-4.875-5.484-7.394-8.448c-0.476-0.563-3.021-3.256-3.899-3.436
		c-0.52-0.104-1.254,2.076-1.468,2.764c-1.589,5.113-3.535,10.963-5.261,16.686c-1.112,0.382-2.253,0.765-3.429,1.149
		c-9.273,3.031-18.723,5.676-28.492,7.181c0.186-2.74,0.392-5.481,0.625-8.221c0.046-0.544,0.095-1.089,0.143-1.633
		c0.317-3.587,0.665-7.173,1.038-10.752c1.799-17.261,4.301-34.666,7.337-52.202c0.273-1.573,1.046-4.355,2.811-6.995
		c1.716-2.568,4.817-4.035,5.778-4.458c3.15-1.396,6.317-2.74,9.526-3.948c12.5-4.709,25.752-7.107,38.917-7.591
		c6.417-0.234,12.839,0.2,19.23,0.996c6.425,0.802,12.831,1.734,19.102,3.698c2.571,0.806,5.114,1.798,7.612,2.963
		c0.716,0.333,2.556,1.611,2.776,2.913c0.265,1.575-0.455,3.351-0.851,4.13c-5.778,11.408-11.589,22.607-17.207,33.849
		c-1.854,0.626-3.85,1.22-5.053,1.511c-1.522,0.367-4.492,0.328-4.863,1.34c-0.09,0.25,2.119,1.118,3.249,1.205
		c7.323,0.561,14.205-3.205,20.895-6.554c1.579-0.789,8.402-4.214,11.554-5.919c2.794-1.511,6.108-3.43,8.851-5.065
		c0.395-0.235,0.865-0.498,1.392-0.774c0.283-0.149,1.183-0.555,1.399-0.309c0.258,0.293-0.206,1.295-0.393,1.741
		c-0.299,0.71-0.595,1.421-0.885,2.137c-1.361,3.361-2.714,7.335-4.069,10.82c-3.89-1.554-8.338-2.251-8.366,2.421
		c-0.006,1.001,0.161,3.499,1.528,6.477c0.283,0.612,0.614,1.331,0.978,2.035c-5.069,6.277-11.727,9.925-19.075,8.454
		c-3.728-0.748-8.332-2.793-11.879-4.773c-1.496-0.836-2.172-1.204-4.786-2.337c-0.625-0.272-1-0.347-1.389-0.507
		c-3.024-1.243,0.016,1.764,2.379,3.442c0.264,0.188,0.518,0.374,0.766,0.558c-2.654,5.593-5.234,11.225-7.712,16.927
		c-1.55,3.567-3.059,7.156-4.519,10.779c-0.938,2.325-7.5,19.95-5.96,21.103c0.293,0.217,1.903-3.458,4.142-8.123
		c2.246-4.686,4.426-9.563,5.059-11.027c0.53-1.229,1.688-3.721,2.866-6.24c7.959-0.28,15.796-0.1,22.618,0.85
		c1.584,0.221,3.161,0.478,4.731,0.773c0.885,0.166,5.431,1.296,4.937,3.538c-0.079,0.351-0.232,0.74-0.424,1.136
		c-0.581,1.204-3.393,4.795-4.153,5.759c-2.707,3.44-5.327,6.945-7.862,10.421c-7.765,10.637-15.083,21.874-22.31,33.172
		C120.236,168.203,115.104,176.057,110.22,184.146z M240.952,234.899h-27.113l19.394-112.061l2.26-13.774h-3.013l-2.26,13.774
		l-25.795,112.061h-34.08l12.803-112.061l2.26-13.774h-3.013l-2.071,13.774L160.93,234.899h-27.113l18.221-106.141
		c2.405-3.247,4.853-6.427,7.365-9.496c1.201-1.468,6.375-8.137,4.711-13.213c-0.699-2.132-5.02-3.558-7.462-4.173l2.307-13.434
		c3.947-1.532,7.551-4.345,10.655-7.89c0.226-0.258,0.451-0.518,0.67-0.783c0.126-0.15,0.814-0.94,1.42-1.729
		c-0.851-1.012-1.552-2.059-1.969-2.813c-0.342-0.617-0.601-1.197-0.798-1.729c-0.303-0.826-0.492-1.485-0.622-2.021h41.569
		l-12.804,101.087l-4.896,28.718h3.012l4.896-28.718l22.03-101.087h46.883L240.952,234.899z M319.648,201.28
		c-3.766,21.945-19.014,36.42-38.219,36.42c-19.206,0-29.373-14.475-25.795-36.42l16.569-96.185
		c3.766-21.946,19.017-36.421,38.219-36.421c19.205,0,29.56,14.475,25.607,36.421L319.648,201.28z M394.771,178.632l-3.955,22.647
		c-3.764,21.945-19.016,36.42-38.221,36.42s-29.373-14.475-25.607-36.42l4.143-24.049h27.113l-4.143,24.049
		c-0.754,3.5,0.941,5.836,3.766,5.836s5.273-2.336,5.838-5.836l3.199-18.445c3.014-17.276-32.949-20.545-26.547-58.129l3.389-19.61
		c3.953-21.946,18.828-36.421,37.846-36.421s29.186,14.475,25.418,36.421l-3.766,21.245H376.13l3.955-21.712
		c0.377-3.27-0.941-5.37-3.766-5.37c-2.637,0-4.709,2.101-5.273,5.37l-2.824,16.108C365.398,137.779,401.173,141.28,394.771,178.632
		z M402.492,234.899l22.781-132.839h-12.426l5.271-30.585h51.967l-5.271,30.585h-12.426l-22.783,132.839H402.492z M516.591,166.025
		l-1.318,68.874H488.16l2.447-60.235h-4.33l-10.355,60.235h-27.113l28.055-163.424h34.457c17.699,0,27.113,13.308,23.725,33.386
		l-6.402,37.352C526.947,152.25,522.617,160.422,516.591,166.025z M605.839,105.095l-16.381,96.185
		c-3.766,21.945-19.018,36.42-38.221,36.42c-19.205,0-29.373-14.475-25.797-36.42l16.57-96.185
		c3.766-21.946,19.016-36.421,38.223-36.421C599.439,68.674,609.794,83.149,605.839,105.095z"/>
	<path fill="#2B3990" d="M305.153,99.258c-2.824,0-5.272,2.335-5.836,5.837l-16.569,96.185c-0.565,3.5,0.941,5.836,3.954,5.836
		c2.824,0,5.084-2.336,5.837-5.836l16.378-96.185C309.669,101.593,307.976,99.258,305.153,99.258z"/>
	<path fill="#2B3990" d="M503.599,102.06h-4.895l-6.402,37.353l-12.803,5.834l-0.189,0.934h16.758c2.824,0,5.271-2.334,5.836-6.068
		l5.461-32.216C508.119,104.394,506.423,102.06,503.599,102.06z"/>
	<path fill="#2B3990" d="M574.96,99.258c-2.824,0-5.271,2.335-5.836,5.837l-16.57,96.185c-0.564,3.5,0.943,5.836,3.955,5.836
		c2.824,0,5.082-2.336,5.836-5.836l16.381-96.185C579.48,101.593,577.785,99.258,574.96,99.258z"/>
	<path fill="#2B3990" d="M116.177,49.809c-1.691,1.526-3.575,3.255-5.25,4.771c-3.998,3.62-8.061,6.939-11.958,9.852
		c-3.143,2.352-10.715,7.99-19.438,12.767c-0.414,0.227-0.832,0.45-1.252,0.673c-0.283,0.151-1,0.558-0.97,0.839
		c0.041,0.354,0.915,0.586,1.387,0.688c5.062,1.099,11.846,2.507,14.274,2.591c7.044,0.246,12.875,0.639,18.466-4.142
		c2.585-2.211,3.931-5.181,4.671-8.525c0.647-2.928,1-8.368,0.302-15.453c1.149-1.303,2.392-2.991,3.277-5.049
		c0.325-0.753,0.437-1.43,0.338-1.583C119.796,46.878,118.922,47.33,116.177,49.809z M108.751,74.33
		c-4.527,4.553-11.626,4.197-17.56,3.979c-1.876-0.07-4.119-0.229-6.512-0.474c6.716-4.127,12.799-8.434,15.465-10.41
		c3.941-2.926,7.745-5.689,11.5-8.98C112.195,64.76,111.531,71.533,108.751,74.33z"/>
	<path fill="#2B3990" d="M77.438,52.594c-0.07-4.169-0.693-8.334-2.559-10.402c-3.209-3.559-6.983-1.591-9.563,0.642
		c-0.069,0.059-0.133,0.12-0.19,0.186c-8.67,8.081-12.794,21.258-14.758,34.607c-1.116,7.6-0.108,21.477,8.216,23.022
		c4.034,0.746,8.064-3.553,9.857-6.92c3.245-6.101,5.214-12.848,6.479-18.444C77.949,61.87,77.491,55.637,77.438,52.594z
		 M74.479,53.483c-0.284,6.635-1.235,10.158-2.313,15.417c-1.267,6.157-3.551,12.409-6.098,17.656
		c-1.542,3.175-3.562,5.13-5.703,5.569c-1.529,0.314-3.321-0.789-4.238-2.449c-0.534-0.965-0.957-1.931-1.178-2.836
		c-0.706-2.855-0.655-5.256-0.644-6.312c0.039-4.127,0.554-7.62,0.84-9.247c1.653-9.478,4.814-18.54,11.826-25.54
		c1.71-1.709,3.921-2.355,5.445-1.477C74.539,45.488,74.545,51.933,74.479,53.483z"/>
	<path fill="#2B3990" d="M138.413,77.328c5.886,0.951,14.651-2.583,20.222-4.247c0.151-1.344-6.679,0.154-12.571,0.461
		c-4.708,0.244-9.086,0.854-13.904,0.102C130.213,73.339,133.116,76.47,138.413,77.328z"/>
</g>
</svg>
