<?xml version="1.0" encoding="utf-8"?>
<!-- Generator: Adobe Illustrator 16.0.0, SVG Export Plug-In . SVG Version: 6.00 Build 0)  -->
<!DOCTYPE svg PUBLIC "-//W3C//DTD SVG 1.1//EN" "http://www.w3.org/Graphics/SVG/1.1/DTD/svg11.dtd">
<svg version="1.1" id="Layer_2" xmlns="http://www.w3.org/2000/svg" xmlns:xlink="http://www.w3.org/1999/xlink" x="0px" y="0px"
	 width="1077.167px" height="424.963px" viewBox="0 0 1077.167 424.963" enable-background="new 0 0 1077.167 424.963"
	 xml:space="preserve">
<g>
	<g>
		<path fill="#8DC63F" d="M377.546,99.188l-40.079,183.909l-8.908,52.249h-5.479l8.906-52.249l23.295-183.909h-75.625
			c0.236,0.976,0.579,2.176,1.129,3.678c0.361,0.968,0.83,2.023,1.452,3.146c0.758,1.372,2.034,3.277,3.582,5.119
			c-1.102,1.435-2.352,2.872-2.584,3.146c-0.397,0.484-0.808,0.955-1.218,1.426c-5.648,6.45-12.206,11.568-19.387,14.354
			l-4.196,24.44c4.441,1.119,12.305,3.713,13.578,7.593c3.027,9.235-6.386,21.366-8.571,24.038
			c-4.572,5.583-9.028,11.371-13.404,17.28l-33.148,193.101h49.327l35.283-203.875l3.768-25.062h5.481l-4.111,25.062
			l-23.294,203.875h62.003l46.929-203.875l4.111-25.062h5.483l-4.112,25.062l-35.284,203.875H411.8l51.041-297.322H377.546z"/>
		<path fill="#8DC63F" d="M538.19,94.091c-34.935,0-62.681,26.334-69.532,66.262l-30.146,174.992
			c-6.508,39.925,11.989,66.26,46.931,66.26c34.94,0,62.682-26.335,69.532-66.26l29.802-174.992
			C591.97,120.425,573.13,94.091,538.19,94.091z M535.451,160.353l-29.797,174.992c-1.37,6.367-5.481,10.616-10.619,10.616
			c-5.481,0-8.223-4.249-7.193-10.616l30.145-174.992c1.027-6.372,5.48-10.62,10.617-10.62
			C533.74,149.733,536.822,153.981,535.451,160.353z"/>
		<path fill="#8DC63F" d="M643.348,188.812l5.138-29.308c1.027-5.948,4.798-9.77,9.593-9.77c5.138,0,7.536,3.822,6.853,9.77
			l-7.196,39.502h49.329l6.851-38.653c6.852-39.928-11.647-66.262-46.246-66.262c-34.597,0-61.66,26.334-68.853,66.262
			l-6.165,35.678c-11.647,68.377,53.781,74.323,48.298,105.756l-5.821,33.558c-1.026,6.367-5.481,10.616-10.619,10.616
			c-5.139,0-8.223-4.249-6.851-10.616l7.537-43.753h-49.328l-7.538,43.753c-6.85,39.925,11.649,66.26,46.589,66.26
			s62.687-26.335,69.536-66.26l7.195-41.204C703.296,226.183,638.209,219.814,643.348,188.812z"/>
		<polygon fill="#8DC63F" points="819.08,154.831 828.669,99.188 734.125,99.188 724.536,154.831 747.141,154.831 705.693,396.509 
			755.022,396.509 796.473,154.831 		"/>
		<path fill="#8DC63F" d="M946.85,159.926c6.167-36.528-10.962-60.739-43.162-60.739H841l-51.041,297.322h49.327l18.84-109.589
			h7.878l-4.451,109.589h49.328l2.397-125.307c10.961-10.191,18.84-25.058,21.922-43.322L946.85,159.926z M896.493,165.448
			l-9.936,58.613c-1.026,6.794-5.479,11.039-10.617,11.039h-30.487l0.345-1.697l23.292-10.616l11.646-67.956h8.907
			C894.781,154.831,897.864,159.077,896.493,165.448z"/>
		<path fill="#8DC63F" d="M1029.065,94.091c-34.943,0-62.689,26.334-69.539,66.262l-30.147,174.992
			c-6.507,39.925,11.991,66.26,46.933,66.26c34.937,0,62.686-26.335,69.536-66.26l29.803-174.992
			C1082.843,120.425,1064.003,94.091,1029.065,94.091z M1026.322,160.353l-29.803,174.992c-1.371,6.367-5.479,10.616-10.619,10.616
			c-5.479,0-8.219-4.249-7.192-10.616l30.145-174.992c1.027-6.372,5.48-10.62,10.619-10.62
			C1024.609,149.733,1027.694,153.981,1026.322,160.353z"/>
	</g>
	<g>
		<path fill="#8DC63F" d="M50.376,122.705c-8.069-2.408-21.782-7.821-22.652-9.759c-1.074-1.896,10.824,2.289,16.143,3.465
			c2.422,0.591,4.776,1.071,7.003,1.467c0.112-1.065,0.213-1.979,0.297-2.7c0.173-1.498,0.349-3.02,0.529-4.559
			c-2.36-0.395-4.902-0.904-7.711-1.602c-17.897-4.448-31.596-9.614-40.005-12.94c-0.739-0.293-3.381-1.423-3.893-0.631
			c-0.439,0.681,0.911,3.008,1.316,3.674c0.961,1.582,1.803,2.978,2.461,4.081c3.438,5.764,6.931,11.27,11.873,15.271
			c8.969,7.261,20.479,10.048,29.642,7.328c1.671-0.496,3.281-1.13,4.871-1.817C50.292,123.544,50.333,123.12,50.376,122.705z"/>
		<path fill="#8DC63F" d="M295.391,62.505c-0.959,0.503-1.816,0.981-2.534,1.409c-4.989,2.975-11.019,6.467-16.1,9.215
			c-5.735,3.102-18.15,9.333-21.021,10.769c-12.17,6.092-24.689,12.943-38.014,11.923c-2.054-0.158-6.077-1.738-5.91-2.193
			c0.675-1.84,6.076-1.77,8.844-2.437c2.189-0.53,5.821-1.61,9.192-2.749c10.223-20.453,20.795-40.828,31.305-61.583
			c0.721-1.418,2.03-4.648,1.55-7.513c-0.402-2.369-3.75-4.695-5.049-5.3c-4.545-2.121-9.171-3.926-13.852-5.391
			c-11.409-3.572-23.061-5.27-34.751-6.728c-11.626-1.448-23.311-2.239-34.987-1.813c-23.949,0.88-48.061,5.244-70.803,13.811
			c-5.838,2.197-11.597,4.642-17.33,7.183c-1.748,0.769-7.391,3.438-10.512,8.11c-3.21,4.803-4.616,9.864-5.113,12.727
			c-5.523,31.904-10.075,63.569-13.348,94.972c-0.678,6.511-1.311,13.035-1.888,19.561c-0.037,1.034-0.117,2.031-0.261,2.973
			c-0.425,4.985-0.8,9.97-1.137,14.956c17.772-2.736,34.964-7.549,51.835-13.064c2.139-0.7,4.216-1.395,6.24-2.091
			c3.139-10.411,6.68-21.054,9.57-30.356c0.389-1.251,1.726-5.217,2.671-5.028c1.598,0.326,6.229,5.226,7.095,6.25
			c4.582,5.392,9.009,10.486,13.455,15.37c12.882-6.748,24.182-14.701,37.02-25.547c3.969-3.354,14.26-14.368,13.937-12.346
			c-0.135,0.841-2.018,4.51-4.683,8.028c-6.013,7.947-17.476,18.962-22.611,22.792c-1.979,1.477-4.021,3.019-6.189,4.573
			c-0.209,0.151-0.419,0.302-0.632,0.453c-1.006,0.714-2.047,1.429-3.123,2.141c-0.249,0.166-0.508,0.331-0.761,0.496
			c-1.148,0.746-2.324,1.489-3.568,2.219c-3.152,1.852-6.355,3.605-9.589,5.288c-2.735-3.193-5.866-6.922-10.309-11.999
			c-0.906-1.03-5.146-5.677-6.807-7.594c-0.213-0.247-0.377-0.451-0.498-0.588c-0.167-0.188-0.284-0.122-0.41,0.106
			c-0.094,0.169-0.847,2.44-0.958,2.808c-2.74,9.383-5.678,19.332-8.241,29.125c-2.732,0.973-5.475,1.912-8.243,2.777
			c-3.497,1.089-7.015,2.181-10.552,3.262c-0.166,0.049-0.331,0.099-0.497,0.15c-3.588,1.093-7.195,2.172-10.827,3.214
			c-16.114,4.627-32.671,8.582-49.711,10.241c-0.707,0.068-2.202,0.337-2.462,1.25c-0.256,0.895,0.698,2.423,1.178,3.004
			c0.754,0.915,1.495,1.736,2.201,2.445c9.87,9.894,20.988,17.291,32.284,22.809c10.135,4.954,20.562,8.693,31.027,11.264
			c7.86,1.932,15.75,3.205,23.563,3.832c7.762,0.626,22.784,0.553,22.609,1.569c-0.376,2.171-8.858,4.776-24.972,5.081
			c-2.844,0.054-6.123-0.024-9.477-0.241c-2.949,24.204-5.329,48.313-7.117,72.222c-0.742,9.881-1.438,19.775-2.022,29.656
			c-1.343,22.831-2.076,45.571-1.347,67.92c0.085,2.525,0.181,5.045,0.304,7.557c0.125,2.565,0.549,10.203,2.125,11.361
			c2.157,1.584,7.26-10.345,8.48-12.771c4.694-9.314,9.518-18.52,14.318-27.651c14.215-27.045,29.006-53.82,44.676-79.764
			c8.887-14.717,18.222-29.006,27.443-43.407c13.147-20.557,26.462-41.001,40.586-60.352c4.612-6.324,9.381-12.7,14.306-18.959
			c1.382-1.753,6.499-8.286,7.555-10.477c0.348-0.72,0.628-1.429,0.77-2.067c0.899-4.08-7.369-6.135-8.979-6.437
			c-2.86-0.538-5.728-1.006-8.609-1.407c-12.412-1.727-26.667-2.056-41.147-1.545c-2.143,4.583-4.25,9.117-5.216,11.352
			c-1.147,2.664-5.117,11.539-9.204,20.063c-4.072,8.487-7,15.173-7.532,14.778c-2.805-2.097,9.134-34.162,10.84-38.392
			c2.658-6.592,5.401-13.121,8.223-19.611c4.505-10.374,9.2-20.62,14.029-30.797c-0.452-0.334-0.914-0.671-1.393-1.015
			c-4.3-3.054-9.832-8.525-4.328-6.263c0.707,0.292,1.389,0.427,2.526,0.922c4.754,2.061,5.987,2.73,8.706,4.252
			c6.456,3.603,14.831,7.324,21.614,8.685c13.368,2.675,25.481-3.96,34.703-15.381c-0.661-1.28-1.265-2.588-1.78-3.702
			c-2.484-5.417-2.789-9.962-2.779-11.783c0.054-8.5,8.144-7.231,15.222-4.404c2.463-6.342,4.926-13.571,7.402-19.686
			c0.529-1.302,1.065-2.597,1.609-3.888c0.341-0.813,1.184-2.635,0.714-3.167C297.54,61.496,295.906,62.234,295.391,62.505z
			 M106.584,109.438c-1.923,8.515-4.919,18.78-9.855,28.059c-2.728,5.122-8.858,11.662-14.997,10.527
			C69.071,145.674,67.537,124.56,69.235,113c2.987-20.306,9.262-40.354,22.451-52.647c0.088-0.098,0.185-0.191,0.291-0.281
			c3.923-3.395,9.661-6.39,14.544-0.977c2.838,3.145,3.785,9.484,3.894,15.825C110.493,79.551,111.192,89.031,106.584,109.438z
			 M189.714,61.626c-1.528,3.553-3.674,6.469-5.657,8.72c1.205,12.236,0.597,21.631-0.522,26.688
			c-1.279,5.776-3.604,10.905-8.066,14.724c-9.658,8.256-19.728,7.579-31.893,7.153c-4.193-0.144-15.912-2.577-24.653-4.474
			c-0.815-0.175-2.325-0.576-2.395-1.186c-0.051-0.488,1.187-1.19,1.674-1.451c0.728-0.384,1.45-0.771,2.164-1.162
			c15.066-8.25,28.143-17.988,33.57-22.049c6.73-5.03,13.748-10.761,20.652-17.013c2.892-2.621,6.147-5.605,9.068-8.242
			c4.74-4.283,6.251-5.063,6.645-4.442C190.47,59.156,190.275,60.325,189.714,61.626z M223.947,110.294
			c-9.637-1.56-14.917-7.256-11.375-6.703c8.763,1.369,16.729,0.259,25.292-0.185c10.72-0.558,23.147-3.283,22.874-0.838
			C250.604,105.595,234.657,112.025,223.947,110.294z"/>
	</g>
</g>
</svg>
